<svg width="50" height="49" viewBox="0 0 50 49" fill="none" xmlns="http://www.w3.org/2000/svg">
<path d="M18.5054 17.5015L7.79955 28.2407C3.97745 32.0628 3.97437 38.2566 7.79268 42.0749C11.611 45.8932 17.8047 45.8901 21.6268 42.068L31.76 31.7969L24.6122 24.2328L18.5054 17.5015Z" fill="#0FE3AF" stroke="#0152A8" stroke-width="2" stroke-linecap="round" stroke-linejoin="round"/>
<path d="M28.5304 7.50935L7.79943 28.2404C3.97733 32.0625 3.97425 38.2562 7.79256 42.0745C11.6109 45.8928 17.8046 45.8898 21.6267 42.0677L42.3577 21.3367C46.1798 17.5146 46.1829 11.3208 42.3646 7.50247C38.5463 3.68417 32.3525 3.68725 28.5304 7.50935Z" stroke="#0152A8" stroke-width="2" stroke-linecap="round" stroke-linejoin="round"/>
<path d="M18.1602 17.8906L31.9874 31.7179" stroke="#0152A8" stroke-width="2" stroke-linecap="round" stroke-linejoin="round"/>
<path d="M32.0088 21.3681L37.2804 16.2693" stroke="#0152A8" stroke-width="2" stroke-linecap="round" stroke-linejoin="round"/>
</svg>
