<svg width="24" height="22" viewBox="0 0 24 22" fill="none" xmlns="http://www.w3.org/2000/svg">
<path fill-rule="evenodd" clip-rule="evenodd" d="M23.8555 10.7778C23.8555 4.82939 18.7061 0.00622559 12.3555 0.00622559C6.0048 0.00622559 0.855469 4.82939 0.855469 10.7778C0.855469 16.154 5.06016 20.6102 10.5586 21.4191V13.8924H7.6379V10.7778H10.5586V8.40469C10.5586 5.70554 12.2759 4.21339 14.9024 4.21339C16.1607 4.21339 17.4771 4.42401 17.4771 4.42401V7.07507H16.0262C14.5985 7.07507 14.1518 7.90506 14.1518 8.75813V10.7778H17.341L16.8317 13.8924H14.1523V21.42C19.6508 20.6117 23.8555 16.1554 23.8555 10.7778V10.7778Z" fill="#0152A8"/>
</svg>
