<svg width="18" height="14" viewBox="0 0 18 14" fill="none" xmlns="http://www.w3.org/2000/svg">
<path d="M15.6428 0.0477905H2.47491C1.89305 0.0483941 1.3352 0.272802 0.923756 0.671774C0.512316 1.07075 0.280896 1.6117 0.280273 2.17593V11.2965C0.280896 11.8607 0.512316 12.4017 0.923756 12.8007C1.3352 13.1996 1.89305 13.424 2.47491 13.4247H15.6428C16.2246 13.424 16.7825 13.1996 17.1939 12.8007C17.6054 12.4017 17.8368 11.8607 17.8374 11.2965V2.17593C17.8368 1.6117 17.6054 1.07075 17.1939 0.671774C16.7825 0.272802 16.2246 0.0483941 15.6428 0.0477905ZM15.087 3.56796L9.44368 7.82423C9.33364 7.90719 9.19823 7.95222 9.05884 7.95222C8.91945 7.95222 8.78404 7.90719 8.67399 7.82423L3.03063 3.56796C2.96432 3.5194 2.90863 3.45855 2.86679 3.38895C2.82495 3.31934 2.79779 3.24237 2.78689 3.16249C2.77599 3.08262 2.78157 3.00144 2.8033 2.92368C2.82504 2.84592 2.86249 2.77312 2.91349 2.70951C2.96449 2.64591 3.02802 2.59276 3.10038 2.55317C3.17274 2.51358 3.2525 2.48833 3.33501 2.47889C3.41753 2.46944 3.50115 2.47599 3.58103 2.49816C3.66091 2.52033 3.73545 2.55767 3.80032 2.60801L9.05884 6.57395L14.3174 2.60801C14.4488 2.51173 14.6141 2.46949 14.7775 2.49045C14.9408 2.51141 15.0891 2.59388 15.1903 2.72002C15.2914 2.84616 15.3373 3.00583 15.318 3.16451C15.2986 3.32319 15.2157 3.46812 15.087 3.56796Z" fill="#0152A8"/>
</svg>
