<svg width="17" height="17" viewBox="0 0 17 17" fill="none" xmlns="http://www.w3.org/2000/svg">
<path d="M16.185 12.373C16.0072 12.1837 15.3796 11.6239 14.2258 10.8832C13.0636 10.136 12.2064 9.67018 11.9606 9.56155C11.9389 9.55194 11.915 9.54842 11.8915 9.55136C11.868 9.5543 11.8457 9.56359 11.8271 9.57824C11.431 9.88711 10.7642 10.4544 10.7285 10.4851C10.4976 10.6829 10.4976 10.6829 10.3086 10.6213C9.97623 10.5123 8.94371 9.96407 8.044 9.06232C7.14429 8.16058 6.56775 7.10252 6.45878 6.7705C6.39646 6.58116 6.39646 6.58116 6.59499 6.35027C6.62564 6.31451 7.19332 5.64774 7.5022 5.25203C7.51684 5.2334 7.52614 5.21112 7.52908 5.1876C7.53202 5.16408 7.52849 5.14021 7.51888 5.11854C7.41025 4.87233 6.94439 4.01553 6.19724 2.85327C5.45554 1.69987 4.89637 1.07226 4.70703 0.894494C4.68965 0.878098 4.66818 0.866692 4.64487 0.861478C4.62155 0.856264 4.59726 0.857435 4.57456 0.864867C3.91271 1.09231 3.27412 1.38252 2.66753 1.73154C2.08194 2.07195 1.52754 2.46339 1.01079 2.90129C0.992753 2.91663 0.979229 2.93658 0.97167 2.95902C0.964111 2.98146 0.962802 3.00553 0.967883 3.02865C1.03906 3.36034 1.37926 4.74497 2.43494 6.66289C3.51207 8.6203 4.25854 9.62319 5.84035 11.1995C7.42217 12.7759 8.45673 13.5673 10.4162 14.6444C12.3341 15.7001 13.7195 16.0406 14.0505 16.1111C14.0736 16.1162 14.0978 16.1148 14.1202 16.1073C14.1427 16.0997 14.1627 16.0862 14.1782 16.0682C14.616 15.5515 15.0073 14.9971 15.3476 14.4115C15.6965 13.8049 15.9868 13.1663 16.2143 12.5045C16.2215 12.482 16.2227 12.4579 16.2175 12.4348C16.2124 12.4117 16.2011 12.3904 16.185 12.373V12.373Z" fill="#0152A8"/>
</svg>
