<svg width="16" height="16" viewBox="0 0 16 16" fill="none" xmlns="http://www.w3.org/2000/svg">
<path d="M7.79995 10.9485C9.39162 10.9485 10.6819 9.65822 10.6819 8.06655C10.6819 6.47488 9.39162 5.18457 7.79995 5.18457C6.20827 5.18457 4.91797 6.47488 4.91797 8.06655C4.91797 9.65822 6.20827 10.9485 7.79995 10.9485Z" stroke="white" stroke-linecap="round" stroke-linejoin="round"/>
<path d="M11.6254 13.8305C10.3415 14.6828 8.8098 15.0821 7.27321 14.9648C5.73663 14.8475 4.28321 14.2205 3.14359 13.1831C2.00396 12.1458 1.2434 10.7575 0.982596 9.2387C0.721789 7.71988 0.97567 6.15745 1.70396 4.79935C2.43224 3.44124 3.59321 2.36524 5.00266 1.74209C6.4121 1.11893 7.98929 0.984316 9.48395 1.3596C10.9786 1.73488 12.3051 2.59856 13.2531 3.8136C14.201 5.02864 14.716 6.52544 14.7163 8.06649C14.7163 9.65879 14.1399 10.9485 12.6989 10.9485C11.2579 10.9485 10.6815 9.65879 10.6815 8.06649V5.18452" stroke="white" stroke-linecap="round" stroke-linejoin="round"/>
</svg>
