<svg width="23" height="23" viewBox="0 0 23 23" fill="none" xmlns="http://www.w3.org/2000/svg">
<path d="M16.4789 2.5872C17.7077 2.59073 18.8851 3.06202 19.754 3.89814C20.6229 4.73426 21.1127 5.86726 21.1164 7.0497V15.9737C21.1127 17.1562 20.6229 18.2892 19.754 19.1253C18.8851 19.9614 17.7077 20.4327 16.4789 20.4363H7.20502C5.97622 20.4327 4.7988 19.9614 3.9299 19.1253C3.06101 18.2892 2.57124 17.1562 2.56757 15.9737V7.0497C2.57124 5.86726 3.06101 4.73426 3.9299 3.89814C4.7988 3.06202 5.97622 2.59073 7.20502 2.5872H16.4789ZM16.4789 0.80249H7.20502C3.63427 0.80249 0.712891 3.61366 0.712891 7.0497V15.9737C0.712891 19.4098 3.63427 22.221 7.20502 22.221H16.4789C20.0497 22.221 22.971 19.4098 22.971 15.9737V7.0497C22.971 3.61366 20.0497 0.80249 16.4789 0.80249Z" fill="white"/>
<path d="M17.87 7.05011C17.5948 7.05011 17.3259 6.9716 17.0971 6.82451C16.8683 6.67742 16.69 6.46835 16.5847 6.22374C16.4794 5.97913 16.4519 5.70997 16.5056 5.4503C16.5592 5.19063 16.6917 4.9521 16.8863 4.76489C17.0808 4.57767 17.3287 4.45018 17.5986 4.39853C17.8684 4.34687 18.1481 4.37338 18.4023 4.4747C18.6565 4.57602 18.8738 4.7476 19.0267 4.96774C19.1795 5.18788 19.2611 5.4467 19.2611 5.71146C19.2615 5.88736 19.2258 6.0616 19.156 6.22419C19.0862 6.38677 18.9838 6.53449 18.8545 6.65887C18.7253 6.78325 18.5718 6.88184 18.4028 6.94898C18.2338 7.01612 18.0528 7.05049 17.87 7.05011ZM11.8419 7.94223C12.5756 7.94223 13.2929 8.1516 13.903 8.54387C14.5131 8.93613 14.9886 9.49368 15.2693 10.146C15.5501 10.7983 15.6236 11.5161 15.4805 12.2086C15.3373 12.9011 14.984 13.5372 14.4651 14.0364C13.9463 14.5357 13.2853 14.8757 12.5656 15.0134C11.846 15.1512 11.1001 15.0805 10.4222 14.8103C9.7443 14.5401 9.1649 14.0825 8.75725 13.4955C8.34961 12.9084 8.13203 12.2182 8.13203 11.5121C8.13308 10.5656 8.52428 9.65822 9.21978 8.98895C9.91529 8.31968 10.8583 7.94324 11.8419 7.94223ZM11.8419 6.15752C10.7413 6.15752 9.66548 6.47156 8.75039 7.05993C7.83531 7.64831 7.12209 8.48458 6.70092 9.46301C6.27975 10.4414 6.16956 11.5181 6.38427 12.5568C6.59898 13.5955 7.12895 14.5496 7.90716 15.2984C8.68538 16.0473 9.67688 16.5573 10.7563 16.7639C11.8357 16.9705 12.9546 16.8644 13.9713 16.4592C14.9881 16.0539 15.8572 15.3676 16.4686 14.487C17.0801 13.6064 17.4064 12.5712 17.4064 11.5121C17.4064 10.092 16.8202 8.73003 15.7766 7.72585C14.7331 6.72166 13.3177 6.15752 11.8419 6.15752Z" fill="white"/>
</svg>
