<svg width="24" height="22" viewBox="0 0 24 22" fill="none" xmlns="http://www.w3.org/2000/svg">
<path d="M16.7397 1.79094C17.9685 1.79447 19.1459 2.26576 20.0148 3.10188C20.8837 3.93799 21.3734 5.071 21.3771 6.25344V15.1775C21.3734 16.3599 20.8837 17.4929 20.0148 18.329C19.1459 19.1652 17.9685 19.6365 16.7397 19.64H7.46576C6.23696 19.6365 5.05954 19.1652 4.19064 18.329C3.32175 17.4929 2.83198 16.3599 2.82831 15.1775V6.25344C2.83198 5.071 3.32175 3.93799 4.19064 3.10188C5.05954 2.26576 6.23696 1.79447 7.46576 1.79094H16.7397V1.79094ZM16.7397 0.00622559H7.46576C3.89502 0.00622559 0.973633 2.8174 0.973633 6.25344V15.1775C0.973633 18.6135 3.89502 21.4247 7.46576 21.4247H16.7397C20.3104 21.4247 23.2318 18.6135 23.2318 15.1775V6.25344C23.2318 2.8174 20.3104 0.00622559 16.7397 0.00622559V0.00622559Z" fill="#0152A8"/>
<path d="M18.1307 6.25385C17.8556 6.25385 17.5866 6.17534 17.3578 6.02824C17.1291 5.88115 16.9508 5.67208 16.8455 5.42747C16.7402 5.18287 16.7126 4.91371 16.7663 4.65403C16.82 4.39436 16.9525 4.15584 17.147 3.96862C17.3416 3.78141 17.5895 3.65391 17.8593 3.60226C18.1292 3.55061 18.4089 3.57712 18.6631 3.67844C18.9173 3.77976 19.1345 3.95134 19.2874 4.17148C19.4403 4.39162 19.5218 4.65043 19.5218 4.91519C19.5222 5.09109 19.4865 5.26534 19.4168 5.42792C19.347 5.5905 19.2445 5.73823 19.1153 5.86261C18.986 5.98699 18.8325 6.08558 18.6635 6.15272C18.4946 6.21986 18.3135 6.25423 18.1307 6.25385V6.25385ZM12.1026 7.14597C12.8364 7.14597 13.5536 7.35534 14.1637 7.7476C14.7738 8.13987 15.2493 8.69741 15.5301 9.34973C15.8109 10.002 15.8843 10.7198 15.7412 11.4123C15.5981 12.1048 15.2447 12.7409 14.7259 13.2402C14.2071 13.7394 13.546 14.0794 12.8264 14.2172C12.1067 14.3549 11.3608 14.2842 10.6829 14.014C10.005 13.7438 9.42564 13.2863 9.01799 12.6992C8.61035 12.1121 8.39277 11.4219 8.39277 10.7159C8.39382 9.76938 8.78502 8.86195 9.48052 8.19268C10.176 7.52342 11.119 7.14698 12.1026 7.14597V7.14597ZM12.1026 5.36125C11.0021 5.36125 9.92622 5.67529 9.01114 6.26367C8.09605 6.85204 7.38283 7.68832 6.96166 8.66675C6.5405 9.64518 6.4303 10.7218 6.64501 11.7605C6.85972 12.7992 7.38969 13.7533 8.1679 14.5022C8.94612 15.251 9.93762 15.761 11.017 15.9676C12.0965 16.1742 13.2153 16.0682 14.2321 15.6629C15.2489 15.2576 16.1179 14.5713 16.7294 13.6907C17.3408 12.8102 17.6672 11.7749 17.6672 10.7159C17.6672 9.29574 17.0809 7.93377 16.0373 6.92958C14.9938 5.9254 13.5784 5.36125 12.1026 5.36125V5.36125Z" fill="#0152A8"/>
</svg>
