<svg width="175" height="59" viewBox="0 0 175 59" fill="none" xmlns="http://www.w3.org/2000/svg">
<rect x="13.5176" y="45.9658" width="52.1096" height="25.1975" rx="12.5988" transform="rotate(-60 13.5176 45.9658)" fill="#0152A8"/>
<rect x="26.0547" y="58.6748" width="52.1096" height="25.1975" rx="12.5988" transform="rotate(-120 26.0547 58.6748)" fill="#0FE3AF"/>
<path d="M19.7468 35.1386C16.2556 41.1721 18.3336 48.8906 24.3882 52.3784C30.4428 55.8662 38.1812 53.8026 41.6724 47.7691L41.8104 47.5306C43.8123 43.8087 43.8972 39.1726 41.6268 35.249L30.6436 16.27L19.7468 35.1386Z" fill="#3DB8ED"/>
<path d="M66.5455 40.2559V18.4377H74.7274C76.4035 18.4377 77.8097 18.7502 78.9461 19.3752C80.0896 20.0002 80.9525 20.8596 81.5349 21.9533C82.1244 23.0399 82.4191 24.2757 82.4191 25.6607C82.4191 27.0598 82.1244 28.3027 81.5349 29.3894C80.9454 30.476 80.0754 31.3319 78.9248 31.9569C77.7742 32.5748 76.3573 32.8837 74.6741 32.8837H69.2515V29.6344H74.1414C75.1215 29.6344 75.9241 29.464 76.5491 29.123C77.1741 28.7821 77.6357 28.3134 77.934 27.7168C78.2394 27.1202 78.3921 26.4348 78.3921 25.6607C78.3921 24.8865 78.2394 24.2047 77.934 23.6152C77.6357 23.0257 77.1705 22.5676 76.5384 22.2409C75.9134 21.9071 75.1073 21.7402 74.1201 21.7402H70.498V40.2559H66.5455ZM89.5383 30.6678V40.2559H85.6817V18.4377H89.453V26.6728H89.6448C90.0283 25.7495 90.6214 25.0215 91.4239 24.4888C92.2336 23.949 93.2634 23.6792 94.5134 23.6792C95.6498 23.6792 96.6405 23.9171 97.4857 24.3929C98.3309 24.8688 98.9843 25.5648 99.4459 26.481C99.9147 27.3972 100.149 28.5158 100.149 29.8368V40.2559H96.2925V30.4334C96.2925 29.3326 96.0084 28.4767 95.4403 27.8659C94.8792 27.248 94.0908 26.9391 93.0752 26.9391C92.3934 26.9391 91.7826 27.0882 91.2428 27.3865C90.7101 27.6777 90.2911 28.1003 89.9857 28.6543C89.6874 29.2083 89.5383 29.8794 89.5383 30.6678ZM108.789 40.5861C107.752 40.5861 106.818 40.4015 105.987 40.0321C105.163 39.6557 104.51 39.1017 104.027 38.3702C103.551 37.6387 103.313 36.7367 103.313 35.6642C103.313 34.7409 103.484 33.9775 103.824 33.3738C104.165 32.7701 104.631 32.2871 105.22 31.9249C105.81 31.5627 106.474 31.2892 107.212 31.1046C107.958 30.9128 108.729 30.7743 109.524 30.6891C110.483 30.5897 111.261 30.5009 111.857 30.4228C112.454 30.3375 112.887 30.2097 113.157 30.0392C113.434 29.8617 113.572 29.5882 113.572 29.2189V29.155C113.572 28.3525 113.334 27.731 112.859 27.2907C112.383 26.8503 111.697 26.6301 110.802 26.6301C109.858 26.6301 109.109 26.8361 108.555 27.248C108.008 27.66 107.638 28.1465 107.447 28.7076L103.846 28.1962C104.13 27.2019 104.599 26.3709 105.252 25.7033C105.905 25.0286 106.704 24.5243 107.649 24.1905C108.594 23.8496 109.638 23.6792 110.781 23.6792C111.57 23.6792 112.354 23.7715 113.136 23.9561C113.917 24.1408 114.631 24.4462 115.277 24.8723C115.923 25.2914 116.442 25.8631 116.832 26.5875C117.23 27.312 117.429 28.2175 117.429 29.3042V40.2559H113.722V38.008H113.594C113.359 38.4625 113.029 38.8887 112.603 39.2864C112.184 39.677 111.655 39.9931 111.016 40.2346C110.383 40.4689 109.641 40.5861 108.789 40.5861ZM109.79 37.7523C110.565 37.7523 111.236 37.5996 111.804 37.2942C112.372 36.9817 112.809 36.5698 113.114 36.0584C113.427 35.5471 113.583 34.9895 113.583 34.3858V32.4576C113.462 32.557 113.256 32.6493 112.965 32.7346C112.681 32.8198 112.361 32.8944 112.006 32.9583C111.651 33.0222 111.3 33.079 110.952 33.1287C110.604 33.1784 110.302 33.2211 110.046 33.2566C109.471 33.3347 108.956 33.4625 108.501 33.6401C108.047 33.8176 107.688 34.0662 107.425 34.3858C107.163 34.6983 107.031 35.1032 107.031 35.6003C107.031 36.3105 107.29 36.8468 107.809 37.209C108.327 37.5712 108.988 37.7523 109.79 37.7523ZM121.307 40.2559V23.8922H125.046V26.6195H125.217C125.515 25.6749 126.026 24.9469 126.751 24.4355C127.482 23.9171 128.317 23.6578 129.254 23.6578C129.467 23.6578 129.705 23.6685 129.968 23.6898C130.238 23.704 130.462 23.7289 130.639 23.7644V27.312C130.476 27.2551 130.217 27.2054 129.861 27.1628C129.513 27.1131 129.176 27.0882 128.849 27.0882C128.146 27.0882 127.514 27.2409 126.953 27.5463C126.399 27.8446 125.962 28.2601 125.643 28.7928C125.323 29.3255 125.163 29.9398 125.163 30.6358V40.2559H121.307ZM133.201 40.2559V23.8922H136.887V26.6728H137.079C137.42 25.7353 137.985 25.0037 138.773 24.4782C139.561 23.9455 140.502 23.6792 141.596 23.6792C142.704 23.6792 143.638 23.949 144.398 24.4888C145.165 25.0215 145.705 25.7495 146.017 26.6728H146.188C146.55 25.7637 147.161 25.0392 148.02 24.4995C148.887 23.9526 149.913 23.6792 151.099 23.6792C152.605 23.6792 153.833 24.155 154.785 25.1067C155.737 26.0584 156.213 27.4469 156.213 29.2722V40.2559H152.345V29.8688C152.345 28.8532 152.076 28.111 151.536 27.6422C150.996 27.1664 150.335 26.9284 149.554 26.9284C148.624 26.9284 147.896 27.2196 147.37 27.802C146.852 28.3773 146.593 29.1266 146.593 30.0499V40.2559H142.811V29.709C142.811 28.8638 142.555 28.1891 142.044 27.6848C141.539 27.1806 140.879 26.9284 140.062 26.9284C139.508 26.9284 139.004 27.0705 138.549 27.3546C138.095 27.6316 137.733 28.0257 137.463 28.5371C137.193 29.0414 137.058 29.6309 137.058 30.3056V40.2559H133.201ZM164.834 40.5861C163.797 40.5861 162.863 40.4015 162.032 40.0321C161.208 39.6557 160.555 39.1017 160.072 38.3702C159.596 37.6387 159.358 36.7367 159.358 35.6642C159.358 34.7409 159.528 33.9775 159.869 33.3738C160.21 32.7701 160.676 32.2871 161.265 31.9249C161.854 31.5627 162.519 31.2892 163.257 31.1046C164.003 30.9128 164.774 30.7743 165.569 30.6891C166.528 30.5897 167.305 30.5009 167.902 30.4228C168.499 30.3375 168.932 30.2097 169.202 30.0392C169.479 29.8617 169.617 29.5882 169.617 29.2189V29.155C169.617 28.3525 169.379 27.731 168.903 27.2907C168.428 26.8503 167.742 26.6301 166.847 26.6301C165.903 26.6301 165.153 26.8361 164.6 27.248C164.053 27.66 163.683 28.1465 163.492 28.7076L159.891 28.1962C160.175 27.2019 160.644 26.3709 161.297 25.7033C161.95 25.0286 162.749 24.5243 163.694 24.1905C164.639 23.8496 165.683 23.6792 166.826 23.6792C167.614 23.6792 168.399 23.7715 169.18 23.9561C169.962 24.1408 170.676 24.4462 171.322 24.8723C171.968 25.2914 172.487 25.8631 172.877 26.5875C173.275 27.312 173.474 28.2175 173.474 29.3042V40.2559H169.766V38.008H169.639C169.404 38.4625 169.074 38.8887 168.648 39.2864C168.229 39.677 167.7 39.9931 167.06 40.2346C166.428 40.4689 165.686 40.5861 164.834 40.5861ZM165.835 37.7523C166.609 37.7523 167.281 37.5996 167.849 37.2942C168.417 36.9817 168.854 36.5698 169.159 36.0584C169.472 35.5471 169.628 34.9895 169.628 34.3858V32.4576C169.507 32.557 169.301 32.6493 169.01 32.7346C168.726 32.8198 168.406 32.8944 168.051 32.9583C167.696 33.0222 167.345 33.079 166.997 33.1287C166.649 33.1784 166.347 33.2211 166.091 33.2566C165.516 33.3347 165.001 33.4625 164.546 33.6401C164.092 33.8176 163.733 34.0662 163.47 34.3858C163.207 34.6983 163.076 35.1032 163.076 35.6003C163.076 36.3105 163.335 36.8468 163.854 37.209C164.372 37.5712 165.033 37.7523 165.835 37.7523Z" fill="#1C1C1C"/>
</svg>
