<svg width="16" height="15" viewBox="0 0 16 15" fill="none" xmlns="http://www.w3.org/2000/svg">
<path d="M5.03463 7.29576C5.63206 8.52949 6.62967 9.52454 7.86493 10.1188C7.95605 10.1619 8.05683 10.1806 8.15736 10.173C8.25788 10.1653 8.35469 10.1317 8.43825 10.0753L10.2525 8.86331C10.3327 8.80894 10.4253 8.77577 10.5218 8.76689C10.6182 8.758 10.7153 8.7737 10.8041 8.81251L14.2004 10.2712C14.3165 10.3195 14.4135 10.4046 14.4764 10.5135C14.5394 10.6223 14.5648 10.7488 14.5488 10.8735C14.4411 11.7137 14.031 12.4859 13.3952 13.0456C12.7594 13.6053 11.9414 13.9141 11.0944 13.9143C8.47675 13.9143 5.96634 12.8745 4.1154 11.0235C2.26446 9.17258 1.22461 6.66217 1.22461 4.04454C1.2248 3.19748 1.53363 2.37951 2.09331 1.74369C2.65299 1.10787 3.42518 0.697769 4.26537 0.590122C4.39007 0.574103 4.51659 0.599523 4.62543 0.662467C4.73427 0.725411 4.8194 0.822389 4.86771 0.938467L6.32641 4.34208C6.36434 4.42942 6.38021 4.52475 6.37262 4.61967C6.36502 4.71458 6.3342 4.80618 6.28286 4.88637L5.07092 6.7297C5.01696 6.81307 4.98529 6.90889 4.97894 7.00799C4.97258 7.1071 4.99176 7.20618 5.03463 7.29576V7.29576Z" stroke="white" stroke-linecap="round" stroke-linejoin="round"/>
</svg>
