<svg width="23" height="19" viewBox="0 0 23 19" fill="none" xmlns="http://www.w3.org/2000/svg">
<path d="M22.4418 2.96327C21.6364 3.31298 20.7842 3.54338 19.9122 3.64717C20.8286 3.11095 21.5178 2.25906 21.8504 1.25129C20.984 1.75755 20.0377 2.11277 19.052 2.30172C18.637 1.86703 18.1378 1.52123 17.5848 1.28532C17.0318 1.04942 16.4366 0.92834 15.8354 0.929451C13.4011 0.929451 11.4311 2.8694 11.4311 5.26082C11.4294 5.59346 11.4676 5.92511 11.5448 6.24868C9.79919 6.16691 8.08994 5.72193 6.52633 4.94223C4.96273 4.16253 3.57921 3.06526 2.46428 1.72063C2.07314 2.37955 1.86628 3.13136 1.86533 3.89749C1.86533 5.39939 2.64947 6.72696 3.83351 7.50473C3.132 7.4881 2.44487 7.30256 1.83044 6.96387V7.01751C1.83044 9.11838 3.35131 10.8661 5.36422 11.264C4.98569 11.3648 4.59563 11.4159 4.20389 11.4159C3.92592 11.4164 3.64858 11.3895 3.37591 11.3355C3.9355 13.0564 5.56417 14.308 7.49343 14.3437C5.92577 15.551 4.00108 16.2036 2.02189 16.1988C1.67058 16.1982 1.31959 16.1774 0.970703 16.1362C2.98414 17.4209 5.32461 18.1005 7.71351 18.094C15.826 18.094 20.258 11.4919 20.258 5.76593C20.258 5.57819 20.2531 5.39045 20.2441 5.20718C21.1043 4.59572 21.8485 3.83586 22.4418 2.96327Z" fill="white"/>
</svg>
