<svg width="23" height="18" viewBox="0 0 23 18" fill="none" xmlns="http://www.w3.org/2000/svg">
<path d="M22.3265 2.04006C21.5211 2.38976 20.669 2.62016 19.797 2.72396C20.7134 2.18773 21.4025 1.33585 21.7352 0.328069C20.8688 0.83433 19.9225 1.18955 18.9368 1.3785C18.5217 0.943816 18.0225 0.59801 17.4696 0.362105C16.9166 0.1262 16.3214 0.00512271 15.7202 0.00623316C13.2859 0.00623316 11.3159 1.94619 11.3159 4.33761C11.3142 4.67024 11.3523 5.00189 11.4295 5.32546C9.68396 5.24369 7.9747 4.79872 6.4111 4.01901C4.84749 3.23931 3.46397 2.14204 2.34905 0.797412C1.95791 1.45634 1.75105 2.20815 1.7501 2.97427C1.7501 4.47617 2.53424 5.80375 3.71828 6.58152C3.01677 6.56488 2.32963 6.37934 1.71521 6.04065V6.09429C1.71521 8.19516 3.23607 9.94291 5.24898 10.3407C4.87046 10.4416 4.4804 10.4927 4.08865 10.4927C3.81068 10.4932 3.53334 10.4662 3.26067 10.4123C3.82026 12.1332 5.44893 13.3848 7.3782 13.4205C5.81053 14.6278 3.88585 15.2804 1.90666 15.2756C1.55534 15.275 1.20436 15.2541 0.855469 15.213C2.86891 16.4977 5.20937 17.1773 7.59828 17.1708C15.7108 17.1708 20.1427 10.5687 20.1427 4.84271C20.1427 4.65497 20.1378 4.46723 20.1289 4.28397C20.9891 3.6725 21.7333 2.91264 22.3265 2.04006V2.04006Z" fill="#0152A8"/>
</svg>
